<?xml version="1.0" standalone="no"?><!DOCTYPE svg PUBLIC "-//W3C//DTD SVG 1.1//EN" "http://www.w3.org/Graphics/SVG/1.1/DTD/svg11.dtd"><svg t="1531391040584" class="icon" style="" viewBox="0 0 1033 1024" version="1.1" xmlns="http://www.w3.org/2000/svg" p-id="4521" xmlns:xlink="http://www.w3.org/1999/xlink" width="201.7578125" height="200"><defs><style type="text/css"></style></defs><path d="M1032.192 737.28c0 8.192-3.072 15.36-9.216 21.504-12.288 12.288-31.744 12.288-43.008 0L551.936 330.752c-9.216-9.216-21.504-14.336-34.816-14.336-13.312 0-25.6 5.12-34.816 14.336l-430.08 429.056c-12.288 12.288-31.744 12.288-43.008 0-12.288-12.288-12.288-31.744 0-43.008l429.056-429.056c43.008-43.008 113.664-43.008 156.672 0l428.032 428.032C1029.12 721.92 1032.192 729.088 1032.192 737.28z" p-id="4522"></path></svg>