<?xml version="1.0" encoding="utf-8"?>
<!-- Generator: Adobe Illustrator 21.0.0, SVG Export Plug-In . SVG Version: 6.00 Build 0)  -->
<svg version="1.1" id="图层_1" xmlns="http://www.w3.org/2000/svg" xmlns:xlink="http://www.w3.org/1999/xlink" x="0px" y="0px"
	 viewBox="0 0 200 200" style="enable-background:new 0 0 200 200;" xml:space="preserve">
<style type="text/css">
	.st0{fill:url(#SVGID_1_);}
</style>
<g>
	<linearGradient id="SVGID_1_" gradientUnits="userSpaceOnUse" x1="28.2197" y1="106" x2="161.7836" y2="106">
		<stop  offset="0" style="stop-color:#5cbafd"/>
		<stop  offset="0.7876" style="stop-color:#43aefb"/>
		<stop  offset="1" style="stop-color:#33a3f4"/>
	</linearGradient>
	<path class="st0" d="M121.3,96.4c-1.2,4.1-5.5,6.3-10.2,4.9c-2.4-0.7-4.4-2.6-5.2-5.1c-1.8-5.6,2.3-10.7,7.6-10.7
		c1.5,0,2.8,0.4,4,1.1c0.1,0.1,35.6-20.3,35.6-20.3c2.7-1.6,2.7-4.1,0-5.7L100,29.9c-2.7-1.6-7.1-1.6-9.8,0L38.5,59.6
		c-2.7,1.6-2.7,4.1,0,5.7l59.8,34.6c1.1,0.6,1.8,1.8,1.8,3.1c0,0,0.5,45.6,0.7,45.7c2.7,1.9,4.2,5.4,3,9.1c-0.8,2.4-2.6,4.2-5,5
		c-5.6,1.8-10.7-2.3-10.7-7.6c0-2.6,1.3-5,3.3-6.5l0,0c0,0,0-2.6,0-5.7l0-34.8c0-1.4-0.8-2.7-2-3.5L33.2,72.4
		c-2.7-1.6-4.9-0.3-4.9,2.8l0,65.5c0,3.1,2.2,6.9,4.9,8.5L90,182.1c2.7,1.6,7.1,1.6,9.8,0l57-32.8c2.7-1.6,4.9-5.4,4.9-8.5l0-68.8
		c0-0.2-0.3-0.4-0.5-0.3C157.4,74.1,121.5,95.7,121.3,96.4z"/>
</g>
</svg>
